<?xml version="1.0" ?><svg height="48" viewBox="0 0 48 48" width="48" xmlns="http://www.w3.org/2000/svg"><defs><style>.cls-1{fill:#d0d7df;}.cls-2{fill:#f1f2f2;}.cls-3{fill:#49aaee;}.cls-4{fill:#474c54;}</style></defs><title/><g data-name="24-Data Analysis" id="_24-Data_Analysis"><path class="cls-1" d="M47,5V9H1V5A4,4,0,0,1,5,1H43S47,1,47,5Z"/><path class="cls-2" d="M47,9V43a4,4,0,0,1-4,4H5a4,4,0,0,1-4-4V9Z"/><path class="cls-3" d="M33,34l-3-3-3-3V19a8.994,8.994,0,0,1,6.36,15.36Z"/><path class="cls-1" d="M33.36,34.36A8.994,8.994,0,0,1,18,28h9l3,3,3,3Z"/><path class="cls-4" d="M47,8H6a1,1,0,0,0,0,2H46V43a3,3,0,0,1-3,3H5a3,3,0,0,1-3-3V5A3,3,0,0,1,5,2H43A2.853,2.853,0,0,1,46,5a1,1,0,0,0,2,0,4.821,4.821,0,0,0-5-5H5A5.006,5.006,0,0,0,0,5V43a5.006,5.006,0,0,0,5,5H43a5.006,5.006,0,0,0,5-5V9A1,1,0,0,0,47,8Z"/><path class="cls-4" d="M6,4A1,1,0,0,0,6,6H8A1,1,0,0,0,8,4Z"/><path class="cls-4" d="M12,4a1,1,0,0,0,0,2h2a1,1,0,0,0,0-2Z"/><path class="cls-4" d="M41,4a1,1,0,0,0,0,2h2a1,1,0,0,0,0-2Z"/><path class="cls-4" d="M18,27a1,1,0,0,0-1,1A10,10,0,1,0,27,18a1,1,0,0,0-1,1v8H22a1,1,0,0,0,0,2h4.586l2.707,2.707a1,1,0,0,0,1.414-1.414L28,27.586V20.062A8,8,0,1,1,19,28,1,1,0,0,0,18,27Z"/><path class="cls-4" d="M23,25a1,1,0,0,0,1-1V20a1,1,0,0,0-1-1H20a1,1,0,0,0,0,2h2v3A1,1,0,0,0,23,25Z"/><path class="cls-4" d="M16,21a1,1,0,0,0,0-2H14a1,1,0,0,0,0,2Z"/><path class="cls-4" d="M11,24a1,1,0,0,0,1,1h4a1,1,0,0,0,0-2H12A1,1,0,0,0,11,24Z"/><path class="cls-4" d="M5.293,42.707a1,1,0,0,0,1.414,0L12.414,37H16a1,1,0,0,0,0-2H12a1,1,0,0,0-.707.293l-6,6A1,1,0,0,0,5.293,42.707Z"/><path class="cls-4" d="M36.293,19.707a1,1,0,0,0,1.414,0L41,16.414V19a1,1,0,0,0,2,0V14a1,1,0,0,0-1-1H37a1,1,0,0,0,0,2h2.586l-3.293,3.293A1,1,0,0,0,36.293,19.707Z"/></g></svg>